<svg width="24" height="24" viewBox="0 0 24 24" fill="none" xmlns="http://www.w3.org/2000/svg">
<path d="M14 4C14.1326 4 14.2598 3.94732 14.3536 3.85355C14.4473 3.75979 14.5 3.63261 14.5 3.5C14.5 3.36739 14.4473 3.24021 14.3536 3.14645C14.2598 3.05268 14.1326 3 14 3V4ZM21 10C21 9.86739 20.9473 9.74021 20.8536 9.64645C20.7598 9.55268 20.6326 9.5 20.5 9.5C20.3674 9.5 20.2402 9.55268 20.1464 9.64645C20.0527 9.74021 20 9.86739 20 10H21ZM14 3H4V4H14V3ZM3 4V20H4V4H3ZM4 21H20V20H4V21ZM21 20V10H20V20H21ZM20 21C20.2652 21 20.5196 20.8946 20.7071 20.7071C20.8946 20.5196 21 20.2652 21 20H20V21ZM3 20C3 20.2652 3.10536 20.5196 3.29289 20.7071C3.48043 20.8946 3.73478 21 4 21V20H3ZM4 3C3.73478 3 3.48043 3.10536 3.29289 3.29289C3.10536 3.48043 3 3.73478 3 4H4V3Z" fill="#757575"/>
<path d="M17.4999 4.50047L9.03986 12.9605C9.01226 12.9886 8.9917 13.0229 8.97986 13.0605L8.15986 15.5305C8.08986 15.7305 8.27986 15.9105 8.46986 15.8405L10.9399 15.0205C10.9775 15.0086 11.0117 14.9881 11.0399 14.9605L19.4999 6.50047M17.4999 4.50047L19.8199 2.18047C19.9199 2.08047 20.0799 2.08047 20.1799 2.18047L21.8199 3.82047C21.9199 3.92047 21.9199 4.08047 21.8199 4.18047L19.4999 6.50047M17.4999 4.50047L19.4999 6.50047" stroke="#757575"/>
</svg>
