<svg width="24" height="25" viewBox="0 0 24 25" fill="none" xmlns="http://www.w3.org/2000/svg">
<g clip-path="url(#clip0_65_1653)">
<path fill-rule="evenodd" clip-rule="evenodd" d="M15.22 5.39973C15.1897 5.45109 15.1488 5.4954 15.1 5.52973H15.11C15.0254 5.58887 14.923 5.61712 14.82 5.60973C14.7086 5.59978 14.6034 5.55419 14.52 5.47973L12.5 3.46973V10.5397C12.5 10.6723 12.4473 10.7995 12.3536 10.8933C12.2598 10.987 12.1326 11.0397 12 11.0397C11.8674 11.0397 11.7402 10.987 11.6464 10.8933C11.5527 10.7995 11.5 10.6723 11.5 10.5397V3.48973L9.5 5.48973C9.42432 5.56136 9.32612 5.60451 9.22216 5.6118C9.11821 5.6191 9.01495 5.59009 8.93 5.52973H8.91C8.86293 5.49454 8.82419 5.44942 8.79654 5.39757C8.76888 5.34572 8.753 5.28841 8.75 5.22973C8.74252 5.17233 8.74759 5.11399 8.76486 5.05874C8.78212 5.0035 8.81117 4.95265 8.85 4.90973L11.65 2.10973C11.7435 2.01811 11.8691 1.9668 12 1.9668C12.1309 1.9668 12.2565 2.01811 12.35 2.10973L15.15 4.90973C15.2143 4.97421 15.2559 5.05785 15.2685 5.14803C15.2811 5.23822 15.2641 5.33006 15.22 5.40973V5.39973ZM16 7.53973H17.5C18.0304 7.53973 18.5391 7.75044 18.9142 8.12551C19.2893 8.50059 19.5 9.00929 19.5 9.53973V19.5397C19.5 20.0702 19.2893 20.5789 18.9142 20.9539C18.5391 21.329 18.0304 21.5397 17.5 21.5397H6.5C5.96957 21.5397 5.46086 21.329 5.08579 20.9539C4.71071 20.5789 4.5 20.0702 4.5 19.5397V9.53973C4.5 9.00929 4.71071 8.50059 5.08579 8.12551C5.46086 7.75044 5.96957 7.53973 6.5 7.53973H8C8.13046 7.53894 8.25607 7.58918 8.35 7.67973C8.45 7.77973 8.5 7.89973 8.5 8.02973C8.49812 8.16161 8.44421 8.28741 8.35 8.37973C8.25769 8.47393 8.13188 8.52785 8 8.52973H6.4C5.9 8.52973 5.5 8.92973 5.5 9.42973V19.6297C5.5 19.8684 5.59482 20.0973 5.7636 20.2661C5.93239 20.4349 6.16131 20.5297 6.4 20.5297H17.6C18.1 20.5297 18.5 20.1297 18.5 19.6297V9.42973C18.5 8.92973 18.1 8.52973 17.6 8.52973H16C15.8674 8.52973 15.7402 8.47705 15.6464 8.38328C15.5527 8.28951 15.5 8.16233 15.5 8.02973C15.5 7.89712 15.5527 7.76994 15.6464 7.67617C15.7402 7.5824 15.8674 7.52973 16 7.52973V7.53973Z" fill="#757575"/>
</g>
<defs>
<clipPath id="clip0_65_1653">
<rect width="24" height="24" fill="white" transform="translate(0 0.469727)"/>
</clipPath>
</defs>
</svg>
