<svg width="24" height="25" viewBox="0 0 24 25" fill="none" xmlns="http://www.w3.org/2000/svg">
<g clip-path="url(#clip0_65_1645)">
<path d="M18 17.2697C18.7231 16.5877 19.2959 15.7623 19.6816 14.8462C20.0673 13.9301 20.2575 12.9436 20.24 11.9497C20.24 7.82973 16.71 4.46973 12.19 4.46973C7.67 4.46973 4 7.82973 4 11.9497C4 16.0797 7.67 19.4297 12.2 19.4297C13.0041 19.4311 13.8048 19.3234 14.58 19.1097C14.81 19.3097 15.06 19.4997 15.33 19.6697C16.39 20.3597 17.53 20.7097 18.73 20.7097C18.95 20.7097 19.13 20.5997 19.21 20.4197C19.2518 20.3378 19.2702 20.2458 19.2632 20.1541C19.2561 20.0624 19.2239 19.9743 19.17 19.8997C18.5862 19.1165 18.1894 18.21 18.01 17.2497V17.2697H18ZM14.88 18.3297L14.82 18.1097L14.5 18.2097C13.7535 18.4311 12.9786 18.5422 12.2 18.5397C8.17 18.5397 4.9 15.5797 4.9 11.9497C4.9 8.31973 8.17 5.36973 12.2 5.36973C16.2 5.36973 19.3 8.32973 19.3 11.9697C19.3 13.7697 18.7 15.4397 17.28 16.6897L17.08 16.8497V17.1097L17.1 17.4097C17.2376 18.2585 17.5363 19.0732 17.98 19.8097C17.2015 19.6889 16.46 19.395 15.81 18.9497C15.53 18.7797 15.09 18.5697 14.87 18.3597L14.88 18.3397V18.3297Z" fill="#757575"/>
</g>
<defs>
<clipPath id="clip0_65_1645">
<rect width="24" height="24" fill="white" transform="translate(0 0.469727)"/>
</clipPath>
</defs>
</svg>
