<svg width="24" height="24" viewBox="0 0 24 24" fill="none" xmlns="http://www.w3.org/2000/svg">
<path fill-rule="evenodd" clip-rule="evenodd" d="M4.0999 11.06C4.0999 9.21676 4.83213 7.449 6.13551 6.14562C7.43888 4.84225 9.20664 4.11002 11.0499 4.11002C12.8932 4.11002 14.6609 4.84225 15.9643 6.14562C17.2677 7.449 17.9999 9.21676 17.9999 11.06C17.9999 12.9033 17.2677 14.671 15.9643 15.9744C14.6609 17.2778 12.8932 18.01 11.0499 18.01C9.20664 18.01 7.43888 17.2778 6.13551 15.9744C4.83213 14.671 4.0999 12.9033 4.0999 11.06ZM11.0399 3.01001C9.74896 3.01124 8.47726 3.32292 7.33205 3.91876C6.18685 4.51459 5.20174 5.37711 4.45982 6.43355C3.71789 7.48999 3.24093 8.70937 3.06915 9.98883C2.89737 11.2683 3.03581 12.5703 3.47281 13.785C3.9098 14.9997 4.63252 16.0915 5.58001 16.9683C6.5275 17.8451 7.67196 18.4812 8.91686 18.8229C10.1618 19.1646 11.4706 19.2019 12.7329 18.9316C13.9952 18.6613 15.174 18.0915 16.1699 17.27L19.9199 21.02C19.9718 21.0725 20.0335 21.1143 20.1015 21.143C20.1695 21.1717 20.2425 21.1867 20.3164 21.1872C20.3902 21.1876 20.4634 21.1735 20.5318 21.1457C20.6001 21.1179 20.6624 21.0769 20.7149 21.025C20.7674 20.9731 20.8092 20.9114 20.8379 20.8434C20.8666 20.7754 20.8816 20.7024 20.882 20.6286C20.8825 20.5547 20.8684 20.4815 20.8406 20.4132C20.8128 20.3448 20.7718 20.2825 20.7199 20.23L16.9799 16.5C18.0394 15.3483 18.7402 13.9128 18.9966 12.3691C19.253 10.8253 19.0539 9.24032 18.4237 7.80795C17.7934 6.37559 16.7594 5.15798 15.448 4.30407C14.1366 3.45017 12.6048 2.997 11.0399 3.00001V3.01001Z" fill="#757575"/>
</svg>
