<svg width="24" height="25" viewBox="0 0 24 25" fill="none" xmlns="http://www.w3.org/2000/svg">
<path fill-rule="evenodd" clip-rule="evenodd" d="M11.3701 1.2998L12.0001 3.7498L12.6301 1.2998H11.3701ZM13.9201 4.4198L15.4401 2.3198L14.2601 1.9198L13.9201 4.4198ZM8.59012 2.3098L10.1101 4.4198L9.77012 1.9198L8.59012 2.3198V2.3098ZM18.5201 19.3898C17.8338 20.132 16.9043 20.6038 15.9001 20.7198L16.3101 20.3498C18.7001 17.9498 19.1701 15.3998 17.7101 12.7198L16.8001 11.1198L16.0001 9.4498C15.7501 8.8898 15.8101 8.4698 16.2101 8.1598C16.2877 8.1011 16.3767 8.05922 16.4714 8.03683C16.5661 8.01445 16.6644 8.01205 16.7601 8.0298C17.0401 8.0798 17.3001 8.25981 17.4801 8.52981L19.8501 12.6898C20.8201 14.3098 20.9901 16.9198 18.5201 19.3898ZM7.52012 18.9498L3.37012 14.7998C3.23496 14.6409 3.16457 14.437 3.17296 14.2286C3.18135 14.0202 3.2679 13.8226 3.41539 13.6751C3.56288 13.5276 3.7605 13.441 3.96891 13.4326C4.17732 13.4243 4.38126 13.4946 4.54012 13.6298L6.70012 15.7898C6.77185 15.8387 6.85847 15.8608 6.94484 15.8522C7.03121 15.8437 7.11183 15.8051 7.1726 15.7431C7.23337 15.6811 7.27043 15.5998 7.27729 15.5133C7.28414 15.4267 7.26037 15.3406 7.21012 15.2698L5.06012 13.1098L3.60012 11.6698C3.46496 11.5109 3.39457 11.307 3.40296 11.0986C3.41135 10.8902 3.4979 10.6926 3.64539 10.5451C3.79288 10.3976 3.9905 10.311 4.19891 10.3026C4.40732 10.2943 4.61126 10.3646 4.77012 10.4998L8.20012 13.9398C8.23373 13.9749 8.27409 14.0028 8.31877 14.0219C8.36345 14.041 8.41154 14.0508 8.46012 14.0508C8.50871 14.0508 8.55679 14.041 8.60147 14.0219C8.64616 14.0028 8.68652 13.9749 8.72012 13.9398C8.75521 13.9062 8.78314 13.8658 8.80221 13.8212C8.82129 13.7765 8.83112 13.7284 8.83112 13.6798C8.83112 13.6312 8.82129 13.5831 8.80221 13.5385C8.78314 13.4938 8.75521 13.4534 8.72012 13.4198L5.29012 9.9798L4.32012 9.0098C4.16864 8.85474 4.08384 8.64658 4.08384 8.4298C4.08384 8.21303 4.16864 8.00487 4.32012 7.8498C4.47687 7.69769 4.6867 7.61261 4.90512 7.61261C5.12354 7.61261 5.33338 7.69769 5.49012 7.8498L6.46012 8.81981L9.90012 12.2498C9.93357 12.2834 9.97331 12.31 10.0171 12.3282C10.0608 12.3463 10.1077 12.3557 10.1551 12.3557C10.2025 12.3557 10.2494 12.3463 10.2932 12.3282C10.3369 12.31 10.3767 12.2834 10.4101 12.2498C10.4785 12.1806 10.5169 12.0871 10.5169 11.9898C10.5169 11.8925 10.4785 11.7991 10.4101 11.7298L6.98012 8.2998C6.86379 8.18485 6.78448 8.03772 6.75241 7.87735C6.72033 7.71697 6.73695 7.55066 6.80012 7.3998C6.86175 7.24888 6.96698 7.11975 7.10235 7.0289C7.23772 6.93806 7.3971 6.88963 7.56012 6.8898C7.78012 6.8898 7.99012 6.9798 8.14012 7.1298L13.9401 12.9198C14.0033 12.9719 14.082 13.0015 14.1639 13.0041C14.2457 13.0066 14.3261 12.982 14.3924 12.9339C14.4588 12.8859 14.5073 12.8172 14.5304 12.7387C14.5535 12.6601 14.5499 12.5761 14.5201 12.4998L13.4001 10.1398C13.1401 9.5798 13.2001 9.1598 13.6001 8.8498C13.6777 8.7911 13.7667 8.74922 13.8614 8.72683C13.9561 8.70445 14.0544 8.70205 14.1501 8.7198C14.4301 8.7698 14.7001 8.9498 14.8801 9.2198L17.0801 13.0798C18.3801 15.4598 17.9501 17.6698 15.7901 19.8298C15.2596 20.387 14.5991 20.8038 13.8678 21.0429C13.1365 21.282 12.3574 21.3359 11.6001 21.1998C10.0447 20.8854 8.62367 20.0998 7.53012 18.9498H7.52012ZM10.7501 6.4498L12.8701 8.5598C12.4601 9.0598 12.4001 9.7298 12.7401 10.4598L12.9601 10.9198L9.44012 7.3898C9.37919 7.27924 9.34495 7.15596 9.34012 7.0298C9.34012 6.7998 9.43012 6.5998 9.58012 6.4398C9.73805 6.28999 9.94744 6.20647 10.1651 6.20647C10.3828 6.20647 10.5922 6.28999 10.7501 6.4398V6.4498ZM18.1101 8.1498C17.974 7.9326 17.7945 7.74586 17.5829 7.60131C17.3712 7.45676 17.132 7.35751 16.8801 7.3098C16.6849 7.27529 16.4847 7.28146 16.2919 7.32792C16.0992 7.37438 15.9182 7.46013 15.7601 7.5798C15.4601 7.8198 15.2601 8.1298 15.1801 8.4698C14.9301 8.2198 14.6101 8.06981 14.2701 7.9998C13.9901 7.95981 13.7101 7.9998 13.4501 8.0998L11.2701 5.9198C10.9778 5.62913 10.5823 5.46597 10.1701 5.46597C9.75789 5.46597 9.36242 5.62913 9.07012 5.9198C8.87012 6.1198 8.74012 6.35981 8.67012 6.6198C8.47356 6.42108 8.22721 6.27882 7.95684 6.2079C7.68647 6.13698 7.40202 6.14001 7.13322 6.21666C6.86442 6.29331 6.62115 6.44078 6.42886 6.64364C6.23656 6.8465 6.1023 7.09729 6.04012 7.3698C5.74673 7.07422 5.34965 6.90468 4.93324 6.89721C4.51683 6.88974 4.11393 7.04493 3.81012 7.3298C3.51945 7.62211 3.35629 8.01758 3.35629 8.4298C3.35629 8.84203 3.51945 9.2375 3.81012 9.52981C3.57012 9.62981 3.31012 9.7698 3.09012 9.9798C2.79945 10.2721 2.63629 10.6676 2.63629 11.0798C2.63629 11.492 2.79945 11.8875 3.09012 12.1798L3.61012 12.6998C3.34155 12.7641 3.09485 12.8985 2.89525 13.0894C2.69564 13.2802 2.55028 13.5207 2.474 13.7861C2.39773 14.0515 2.39329 14.3324 2.46113 14.6001C2.52896 14.8678 2.66665 15.1127 2.86012 15.3098L7.00012 19.4698C8.20547 20.7284 9.77009 21.584 11.4801 21.9198C12.6245 22.1356 13.8082 21.9594 14.8401 21.4198C15.6098 21.5195 16.3921 21.4345 17.1224 21.1719C17.8528 20.9094 18.5101 20.4767 19.0401 19.9098C21.7901 17.1398 21.5801 14.1698 20.4701 12.3198L18.1001 8.1498H18.1101Z" fill="#757575"/>
</svg>
