<svg width="44" height="26" viewBox="0 0 44 26" fill="none" xmlns="http://www.w3.org/2000/svg">
<path d="M24.8186 13.0001C24.8186 19.903 19.2627 25.4988 12.4095 25.4988C5.55634 25.4988 0 19.9017 0 13.0001C0 6.09851 5.55592 0.500977 12.4095 0.500977C19.2631 0.500977 24.8186 6.09724 24.8186 13.0001ZM38.4319 13.0001C38.4319 19.4977 35.6539 24.7671 32.2271 24.7671C28.8003 24.7671 26.0223 19.4977 26.0223 13.0001C26.0223 6.50255 28.7999 1.23314 32.2267 1.23314C35.6535 1.23314 38.4314 6.50086 38.4314 13.0001M44 13.0001C44 18.8203 43.0231 23.5414 41.8178 23.5414C40.6124 23.5414 39.636 18.8216 39.636 13.0001C39.636 7.17862 40.6128 2.45876 41.8178 2.45876C43.0227 2.45876 44 7.1782 44 13.0001Z" fill="#292929"/>
</svg>
