<svg width="25" height="26" viewBox="0 0 25 26" fill="none" xmlns="http://www.w3.org/2000/svg">
<g clip-path="url(#clip0_65_1650)">
<path d="M18 3.46973C18 3.33712 18.0527 3.20994 18.1464 3.11617C18.2402 3.02241 18.3674 2.96973 18.5 2.96973C18.6326 2.96973 18.7598 3.02241 18.8536 3.11617C18.9473 3.20994 19 3.33712 19 3.46973V5.96973H21.5C21.6326 5.96973 21.7598 6.02241 21.8536 6.11617C21.9473 6.20994 22 6.33712 22 6.46973C22 6.60233 21.9473 6.72951 21.8536 6.82328C21.7598 6.91705 21.6326 6.96973 21.5 6.96973H19V9.46973C19 9.60233 18.9473 9.72951 18.8536 9.82328C18.7598 9.91705 18.6326 9.96973 18.5 9.96973C18.3674 9.96973 18.2402 9.91705 18.1464 9.82328C18.0527 9.72951 18 9.60233 18 9.46973V6.96973H15.5C15.3674 6.96973 15.2402 6.91705 15.1464 6.82328C15.0527 6.72951 15 6.60233 15 6.46973C15 6.33712 15.0527 6.20994 15.1464 6.11617C15.2402 6.02241 15.3674 5.96973 15.5 5.96973H18V3.46973ZM7 7.96973C7 7.70451 7.10536 7.45016 7.29289 7.26262C7.48043 7.07508 7.73478 6.96973 8 6.96973H11.5C11.6326 6.96973 11.7598 6.91705 11.8536 6.82328C11.9473 6.72951 12 6.60233 12 6.46973C12 6.33712 11.9473 6.20994 11.8536 6.11617C11.7598 6.02241 11.6326 5.96973 11.5 5.96973H8C7.46957 5.96973 6.96086 6.18044 6.58579 6.55551C6.21071 6.93059 6 7.43929 6 7.96973V21.9697C6 22.0626 6.02586 22.1536 6.07467 22.2326C6.12349 22.3116 6.19334 22.3754 6.27639 22.4169C6.35945 22.4585 6.45242 22.476 6.5449 22.4677C6.63738 22.4594 6.72572 22.4254 6.8 22.3697L12.5 17.9697L18.2 22.3697C18.2743 22.4254 18.3626 22.4594 18.4551 22.4677C18.5476 22.476 18.6406 22.4585 18.7236 22.4169C18.8067 22.3754 18.8765 22.3116 18.9253 22.2326C18.9741 22.1536 19 22.0626 19 21.9697V13.4697C19 13.3371 18.9473 13.2099 18.8536 13.1162C18.7598 13.0224 18.6326 12.9697 18.5 12.9697C18.3674 12.9697 18.2402 13.0224 18.1464 13.1162C18.0527 13.2099 18 13.3371 18 13.4697V20.9497L12.8 16.9497C12.7135 16.8848 12.6082 16.8497 12.5 16.8497C12.3918 16.8497 12.2865 16.8848 12.2 16.9497L7 20.9497V7.96973Z" fill="#757575"/>
</g>
<defs>
<clipPath id="clip0_65_1650">
<rect width="25" height="25" fill="white" transform="translate(0 0.969727)"/>
</clipPath>
</defs>
</svg>
