<svg width="42" height="42" viewBox="0 0 42 42" fill="none" xmlns="http://www.w3.org/2000/svg">
<path d="M30.3665 4.39031C30.3665 4.17283 30.4529 3.96426 30.6067 3.81049C30.7605 3.65671 30.969 3.57031 31.1865 3.57031C31.404 3.57031 31.6126 3.65671 31.7664 3.81049C31.9201 3.96426 32.0065 4.17283 32.0065 4.39031V8.49031H36.1065C36.324 8.49031 36.5326 8.57671 36.6864 8.73048C36.8401 8.88426 36.9265 9.09283 36.9265 9.31031C36.9265 9.52779 36.8401 9.73636 36.6864 9.89014C36.5326 10.0439 36.324 10.1303 36.1065 10.1303H32.0065V14.2303C32.0065 14.4478 31.9201 14.6564 31.7664 14.8101C31.6126 14.9639 31.404 15.0503 31.1865 15.0503C30.969 15.0503 30.7605 14.9639 30.6067 14.8101C30.4529 14.6564 30.3665 14.4478 30.3665 14.2303V10.1303H26.2665C26.049 10.1303 25.8405 10.0439 25.6867 9.89014C25.5329 9.73636 25.4465 9.52779 25.4465 9.31031C25.4465 9.09283 25.5329 8.88426 25.6867 8.73048C25.8405 8.57671 26.049 8.49031 26.2665 8.49031H30.3665V4.39031ZM12.3265 11.7703C12.3265 11.3354 12.4993 10.9182 12.8069 10.6107C13.1144 10.3031 13.5316 10.1303 13.9665 10.1303H19.7065C19.924 10.1303 20.1326 10.0439 20.2864 9.89014C20.4401 9.73636 20.5265 9.52779 20.5265 9.31031C20.5265 9.09283 20.4401 8.88426 20.2864 8.73048C20.1326 8.57671 19.924 8.49031 19.7065 8.49031H13.9665C13.0966 8.49031 12.2623 8.83588 11.6472 9.451C11.0321 10.0661 10.6865 10.9004 10.6865 11.7703V34.7303C10.6865 34.8826 10.7289 35.0319 10.809 35.1614C10.8891 35.291 11.0036 35.3956 11.1398 35.4637C11.276 35.5318 11.4285 35.5607 11.5802 35.547C11.7318 35.5333 11.8767 35.4777 11.9985 35.3863L21.3465 28.1703L30.6945 35.3863C30.8164 35.4777 30.9612 35.5333 31.1129 35.547C31.2646 35.5607 31.417 35.5318 31.5532 35.4637C31.6894 35.3956 31.804 35.291 31.8841 35.1614C31.9641 35.0319 32.0065 34.8826 32.0065 34.7303V20.7903C32.0065 20.5728 31.9201 20.3643 31.7664 20.2105C31.6126 20.0567 31.404 19.9703 31.1865 19.9703C30.969 19.9703 30.7605 20.0567 30.6067 20.2105C30.4529 20.3643 30.3665 20.5728 30.3665 20.7903V33.0575L21.8385 26.4975C21.6966 26.3911 21.5239 26.3335 21.3465 26.3335C21.1691 26.3335 20.9965 26.3911 20.8545 26.4975L12.3265 33.0575V11.7703Z" fill="#292929"/>
</svg>
