<svg width="13" height="12" viewBox="0 0 13 12" fill="none" xmlns="http://www.w3.org/2000/svg">
<g clip-path="url(#clip0_65_1589)">
<path fill-rule="evenodd" clip-rule="evenodd" d="M4.03014 4.11996C3.95311 4.06219 3.85783 4.03414 3.76178 4.04097C3.66574 4.04779 3.57538 4.08903 3.50729 4.15712C3.43921 4.2252 3.39797 4.31556 3.39114 4.41161C3.38432 4.50765 3.41237 4.60293 3.47014 4.67996L6.95014 8.16796L10.4301 4.67996C10.476 4.64558 10.5139 4.60174 10.5413 4.55142C10.5688 4.50111 10.5851 4.44548 10.5891 4.38832C10.5932 4.33115 10.5849 4.27378 10.5649 4.22009C10.5448 4.1664 10.5135 4.11764 10.473 4.07712C10.4325 4.03659 10.3837 4.00525 10.33 3.98521C10.2763 3.96517 10.2189 3.9569 10.1618 3.96097C10.1046 3.96503 10.049 3.98133 9.99868 4.00876C9.94836 4.03619 9.90452 4.07411 9.87014 4.11996L6.95014 7.03196L4.03014 4.11996Z" fill="#757575"/>
</g>
<defs>
<clipPath id="clip0_65_1589">
<rect width="12" height="12" fill="white" transform="translate(0.950195)"/>
</clipPath>
</defs>
</svg>
